[Header]
FileType HTR
DataType HTRS
FileVersion 1
NumSegments 64
NumFrames 3
DataFrameRate 24
EulerRotationOrder ZYX
CalibrationUnits mm
RotationUnits Degrees
GlobalAxisofGravity Y
BoneLengthAxis Y
ScaleFactor 1.0
[SegmentNames&Hierarchy]
Hips	GLOBAL
Spine	Hips
Spine1	Spine
Spine2	Spine1
Neck	Spine2
Head	Neck
LeftEye	Head
RightEye	Head
LeftShoulder	Spine2
LeftArm	LeftShoulder
LeftForeArm	LeftArm
LeftHand	LeftForeArm
LeftHandThumb1	LeftHand
LeftHandThumb2	LeftHandThumb1
LeftHandThumb3	LeftHandThumb2
LeftHandThumb4	LeftHandThumb3
LeftHandIndex1	LeftHand
LeftHandIndex2	LeftHandIndex1
LeftHandIndex3	LeftHandIndex2
LeftHandIndex4	LeftHandIndex3
LeftHandMiddle1	LeftHand
LeftHandMiddle2	LeftHandMiddle1
LeftHandMiddle3	LeftHandMiddle2
LeftHandMiddle4	LeftHandMiddle3
LeftHandRing1	LeftHand
LeftHandRing2	LeftHandRing1
LeftHandRing3	LeftHandRing2
LeftHandRing4	LeftHandRing3
LeftHandPinky1	LeftHand
LeftHandPinky2	LeftHandPinky1
LeftHandPinky3	LeftHandPinky2
LeftHandPinky4	LeftHandPinky3
RightShoulder	Spine2
RightArm	RightShoulder
RightForeArm	RightArm
RightHand	RightForeArm
RightHandPinky1	RightHand
RightHandPinky2	RightHandPinky1
RightHandPinky3	RightHandPinky2
RightHandPinky4	RightHandPinky3
RightHandRing1	RightHand
RightHandRing2	RightHandRing1
RightHandRing3	RightHandRing2
RightHandRing4	RightHandRing3
RightHandMiddle1	RightHand
RightHandMiddle2	RightHandMiddle1
RightHandMiddle3	RightHandMiddle2
RightHandMiddle4	RightHandMiddle3
RightHandIndex1	RightHand
RightHandIndex2	RightHandIndex1
RightHandIndex3	RightHandIndex2
RightHandIndex4	RightHandIndex3
RightHandThumb1	RightHand
RightHandThumb2	RightHandThumb1
RightHandThumb3	RightHandThumb2
RightHandThumb4	RightHandThumb3
LeftUpLeg	Hips
LeftLeg	LeftUpLeg
LeftFoot	LeftLeg
LeftToeBase	LeftFoot
RightUpLeg	Hips
RightLeg	RightUpLeg
RightFoot	RightLeg
RightToeBase	RightFoot
[BasePosition]
Hips	0	0	0	0	0	0	1
Spine	0	0	0	0	0	0	1
Spine1	0	0	0	0	0	0	1
Spine2	0	0	0	0	0	0	1
Neck	0	0	0	0	0	0	1
Head	0	0	0	0	0	0	1
LeftEye	0	0	0	0	0	0	1
RightEye	0	0	0	0	0	0	1
LeftShoulder	0	0	0	0	0	0	1
LeftArm	0	0	0	0	0	0	1
LeftForeArm	0	0	0	0	0	0	1
LeftHand	0	0	0	0	0	0	1
LeftHandThumb1	0	0	0	0	0	0	1
LeftHandThumb2	0	0	0	0	0	0	1
LeftHandThumb3	0	0	0	0	0	0	1
LeftHandThumb4	0	0	0	0	0	0	1
LeftHandIndex1	0	0	0	0	0	0	1
LeftHandIndex2	0	0	0	0	0	0	1
LeftHandIndex3	0	0	0	0	0	0	1
LeftHandIndex4	0	0	0	0	0	0	1
LeftHandMiddle1	0	0	0	0	0	0	1
LeftHandMiddle2	0	0	0	0	0	0	1
LeftHandMiddle3	0	0	0	0	0	0	1
LeftHandMiddle4	0	0	0	0	0	0	1
LeftHandRing1	0	0	0	0	0	0	1
LeftHandRing2	0	0	0	0	0	0	1
LeftHandRing3	0	0	0	0	0	0	1
LeftHandRing4	0	0	0	0	0	0	1
LeftHandPinky1	0	0	0	0	0	0	1
LeftHandPinky2	0	0	0	0	0	0	1
LeftHandPinky3	0	0	0	0	0	0	1
LeftHandPinky4	0	0	0	0	0	0	1
RightShoulder	0	0	0	0	0	0	1
RightArm	0	0	0	0	0	0	1
RightForeArm	0	0	0	0	0	0	1
RightHand	0	0	0	0	0	0	1
RightHandPinky1	0	0	0	0	0	0	1
RightHandPinky2	0	0	0	0	0	0	1
RightHandPinky3	0	0	0	0	0	0	1
RightHandPinky4	0	0	0	0	0	0	1
RightHandRing1	0	0	0	0	0	0	1
RightHandRing2	0	0	0	0	0	0	1
RightHandRing3	0	0	0	0	0	0	1
RightHandRing4	0	0	0	0	0	0	1
RightHandMiddle1	0	0	0	0	0	0	1
RightHandMiddle2	0	0	0	0	0	0	1
RightHandMiddle3	0	0	0	0	0	0	1
RightHandMiddle4	0	0	0	0	0	0	1
RightHandIndex1	0	0	0	0	0	0	1
RightHandIndex2	0	0	0	0	0	0	1
RightHandIndex3	0	0	0	0	0	0	1
RightHandIndex4	0	0	0	0	0	0	1
RightHandThumb1	0	0	0	0	0	0	1
RightHandThumb2	0	0	0	0	0	0	1
RightHandThumb3	0	0	0	0	0	0	1
RightHandThumb4	0	0	0	0	0	0	1
LeftUpLeg	0	0	0	0	0	0	1
LeftLeg	0	0	0	0	0	0	1
LeftFoot	0	0	0	0	0	0	1
LeftToeBase	0	0	0	0	0	0	1
RightUpLeg	0	0	0	0	0	0	1
RightLeg	0	0	0	0	0	0	1
RightFoot	0	0	0	0	0	0	1
RightToeBase	0	0	0	0	0	0	1
[Hips]
1	-15.40920734	959.5064697	3.686338902	9.299960136	-82.19814301	-2.701998472	1.0
2	-156.9793854	964.480957	5.049371719	13.10624504	-80.57190704	-5.779039383	1.0
3	-314.7206421	982.0275879	12.64027119	5.13736105	-76.984375	3.194844246	1.0
[Spine]
1	0	101.8159943	1.315000057	8.084144592	4.855264664	-1.221963763	1.0
2	0	101.8159943	1.315000057	8.327955246	6.440289021	-0.5441211462	1.0
3	0	101.8159943	1.315000057	7.250191689	9.430644989	-2.220013142	1.0
[Spine1]
1	0	100.8349991	-10.00800037	2.865324497	1.690016031	-0.2339122891	1.0
2	0	100.8349991	-10.00800037	3.02831459	2.508537054	-0.3332805634	1.0
3	0	100.8349991	-10.00800037	2.715922117	3.680681229	-0.8803768158	1.0
[Spine2]
1	0	91	-13.73399925	2.880040646	1.661527634	-0.253237009	1.0
2	0	91	-13.73399925	3.045458555	2.486040592	-0.3553624153	1.0
3	0	91	-13.73399925	2.719309807	3.669219255	-0.8994648457	1.0
[Neck]
1	0	166.7169952	-25.16200066	-1.664474845	11.10727215	-0.7874880433	1.0
2	0	166.7169952	-25.16200066	-1.783180237	10.26158619	-0.1612233222	1.0
3	0	166.7169952	-25.16200066	-0.9834061861	8.613232613	0.2720596194	1.0
[Head]
1	0	96.17900085	16.84999847	-26.7894516	47.26728439	-27.0935173	1.0
2	0	96.17900085	16.84999847	-25.9562664	45.06100464	-25.63537788	1.0
3	0	96.17900085	16.84999847	-22.87739372	39.81092072	-21.08202744	1.0
[LeftEye]
1	30.6760006	64.09500122	92.83599854	0	0	0	1.0
2	30.6760006	64.09500122	92.83599854	0	0	0	1.0
3	30.6760006	64.09500122	92.83599854	0	0	0	1.0
[RightEye]
1	-30.6760006	64.09500122	92.83499908	0	0	0	1.0
2	-30.6760006	64.09500122	92.83499908	0	0	0	1.0
3	-30.6760006	64.09500122	92.83499908	0	0	0	1.0
[LeftShoulder]
1	45.70400238	109.4599991	-26.28000069	2.846176147	4.278867245	-11.50734711	1.0
2	45.70400238	109.4599991	-26.28000069	2.447427273	7.532268047	-11.96444321	1.0
3	45.70400238	109.4599991	-26.28000069	2.424223185	7.803594112	-12.57386398	1.0
[LeftArm]
1	105.923996	-5.24600029	-22.32099915	23.63165092	5.000968933	-42.401474	1.0
2	105.923996	-5.24600029	-22.32099915	27.89946175	12.0956459	-40.98055649	1.0
3	105.923996	-5.24600029	-22.32099915	30.64400864	20.14905167	-34.02851486	1.0
[LeftForeArm]
1	278.414978	-0.0009999999311	0	-3.290873428e-05	-70.9719696	-0.0001768757065	1.0
2	278.414978	-0.0009999999311	0	-2.835214445e-06	-66.14487457	-0.0002210376988	1.0
3	278.414978	-0.0009999999311	0	2.121175203e-05	-61.78961945	-0.0002397485514	1.0
[LeftHand]
1	283.2879944	0	0	35.91764832	-14.78730202	7.568214417	1.0
2	283.2879944	0	0	39.18448639	-12.56542587	3.367514372	1.0
3	283.2879944	0	0	40.66837692	-6.099600792	-1.184738278	1.0
[LeftHandThumb1]
1	24.6609993	-15.75	26.8239994	2.593356371	2.798727512	-1.801743627	1.0
2	24.6609993	-15.75	26.8239994	-1.308597088	7.758551121	1.623346329	1.0
3	24.6609993	-15.75	26.8239994	-5.634876251	16.02699661	7.984560966	1.0
[LeftHandThumb2]
1	32.29800034	-18.64699936	18.64699936	3.770467043	12.92078781	12.4615469	1.0
2	32.29800034	-18.64699936	18.64699936	5.152482033	10.57783794	8.578968048	1.0
3	32.29800034	-18.64699936	18.64699936	6.061068535	9.666453362	2.198607206	1.0
[LeftHandThumb3]
1	26.52600098	-15.31499958	15.31499958	0.2580682635	1.491679668	0.03303570673	1.0
2	26.52600098	-15.31499958	15.31499958	0.3982378244	2.147511482	1.517848015	1.0
3	26.52600098	-15.31499958	15.31499958	1.002908468	4.707858086	2.669825554	1.0
[LeftHandThumb4]
1	19.54599953	-11.28499985	11.28499985	0	0	0	1.0
2	19.54599953	-11.28499985	11.28499985	0	0	0	1.0
3	19.54599953	-11.28499985	11.28499985	0	0	0	1.0
[LeftHandIndex1]
1	91.09299469	-5.170999527	22.60099792	0.7199601531	0.05961879343	5.48947382	1.0
2	91.09299469	-5.170999527	22.60099792	0.2782547176	-0.2063202411	0.6205003858	1.0
3	91.09299469	-5.170999527	22.60099792	-0.1949272454	0.2669604719	-4.413300037	1.0
[LeftHandIndex2]
1	36.76399994	0	0	-0.1817248762	1.701800823	-9.167617798	1.0
2	36.76399994	0	0	-0.2006426603	1.762611032	-9.793343544	1.0
3	36.76399994	0	0	-0.2468440086	1.898040295	-11.19962788	1.0
[LeftHandIndex3]
1	28.83100128	0	0	-0.04075011238	0.2861008644	-4.958882809	1.0
2	28.83100128	0	0	-0.04653829336	0.3487758338	-5.584740162	1.0
3	28.83100128	0	0	-0.06319560111	0.4881764054	-6.980668068	1.0
[LeftHandIndex4]
1	23.92700005	0	0	0	0	0	1.0
2	23.92700005	0	0	0	0	0	1.0
3	23.92700005	0	0	0	0	0	1.0
[LeftHandMiddle1]
1	95.33399963	0	0	-0.3960616589	3.73148036	-6.448844433	1.0
2	95.33399963	0	0	-1.154830575	3.918484926	-13.27090645	1.0
3	95.33399963	0	0	-1.805990338	4.296370506	-18.62156677	1.0
[LeftHandMiddle2]
1	36.98199844	0	0	-0.6309962273	2.727657557	-20.0034008	1.0
2	36.98199844	0	0	-0.7075884342	2.860165358	-21.51489639	1.0
3	36.98199844	0	0	-0.8629248142	3.097478867	-24.31787491	1.0
[LeftHandMiddle3]
1	29.50900078	0	0	-0.05396546796	0.9889378548	-7.181867123	1.0
2	29.50900078	0	0	-0.0775661692	1.137225389	-8.690433502	1.0
3	29.50900078	0	0	-0.1363215148	1.408737898	-11.48260117	1.0
[LeftHandMiddle4]
1	28.3390007	0	0	0	0	0	1.0
2	28.3390007	0	0	0	0	0	1.0
3	28.3390007	0	0	0	0	0	1.0
[LeftHandRing1]
1	91.04499817	-0.4390000105	-18.65100098	-1.567145228	9.979342461	-15.81425953	1.0
2	91.04499817	-0.4390000105	-18.65100098	-2.209258795	10.05733204	-21.11439896	1.0
3	91.04499817	-0.4390000105	-18.65100098	-2.85212326	10.2680912	-26.07289124	1.0
[LeftHandRing2]
1	31.54000092	0	0	-0.1936888397	2.055632591	-17.45305634	1.0
2	31.54000092	0	0	-0.2593354285	2.27828598	-19.79490471	1.0
3	31.54000092	0	0	-0.4336436093	2.716077328	-24.55456543	1.0
[LeftHandRing3]
1	29.37700081	0	0	0.05522370711	0.9633988142	-9.770009041	1.0
2	29.37700081	0	0	0.03382316232	1.194363475	-12.0994997	1.0
3	29.37700081	0	0	-0.05252666026	1.65813899	-16.84158707	1.0
[LeftHandRing4]
1	26.47500038	0	0	0	0	0	1.0
2	26.47500038	0	0	0	0	0	1.0
3	26.47500038	0	0	0	0	0	1.0
[LeftHandPinky1]
1	80.77799988	-4.887000084	-38.06099701	-1.493068337	14.0398922	-14.72590065	1.0
2	80.77799988	-4.887000084	-38.06099701	-2.255206585	14.1139431	-20.23793602	1.0
3	80.77799988	-4.887000084	-38.06099701	-3.256717205	15.14473629	-26.17524719	1.0
[LeftHandPinky2]
1	36	0	0	-0.5436971188	1.963831186	-22.22259521	1.0
2	36	0	0	-0.7567816377	2.370374203	-26.81633949	1.0
3	36	0	0	-1.249795079	3.024316788	-35.03908539	1.0
[LeftHandPinky3]
1	21.14200211	0	0	0.01251157839	0.2888519168	5.682299137	1.0
2	21.14200211	0	0	0.0007832437987	0.743237555	1.150612831	1.0
3	21.14200211	0	0	-0.1490382701	1.538502455	-6.938495636	1.0
[LeftHandPinky4]
1	19.75699997	0	0	0	0	0	1.0
2	19.75699997	0	0	0	0	0	1.0
3	19.75699997	0	0	0	0	0	1.0
[RightShoulder]
1	-45.70000076	109.4620056	-26.28000069	7.828226566	23.31735039	17.93486214	1.0
2	-45.70000076	109.4620056	-26.28000069	9.311318398	26.18338585	21.1107769	1.0
3	-45.70000076	109.4620056	-26.28000069	9.785860062	26.79611588	22.29660416	1.0
[RightArm]
1	-105.9280014	-5.248000145	-22.32099915	23.2298317	-8.911772728	27.85763359	1.0
2	-105.9280014	-5.248000145	-22.32099915	19.68499756	-0.3811421692	28.14801025	1.0
3	-105.9280014	-5.248000145	-22.32099915	15.99026871	2.208629608	27.56233978	1.0
[RightForeArm]
1	-278.414978	0	0	2.721709279e-06	37.98645782	5.772939403e-06	1.0
2	-278.414978	0	0	6.271913662e-06	44.68900681	1.797979188e-08	1.0
3	-278.414978	0	0	-4.28058047e-06	58.50901413	-1.94100121e-05	1.0
[RightHand]
1	-283.2879944	0	0.0009999999311	26.26397133	1.825170398	3.417686462	1.0
2	-283.2879944	0	0.0009999999311	26.7664814	-1.773975968	4.380001545	1.0
3	-283.2879944	0	0.0009999999311	27.13401985	-2.276689053	3.623907566	1.0
[RightHandPinky1]
1	-80.76699829	-4.885000229	-38.06000137	-7.959583282	-7.762486458	62.07175827	1.0
2	-80.76699829	-4.885000229	-38.06000137	-7.904367447	-5.641060352	62.82077408	1.0
3	-80.76699829	-4.885000229	-38.06000137	-7.311748505	-1.852288246	59.44606018	1.0
[RightHandPinky2]
1	-36	0	0.0009999999311	-2.590694189	-4.304590225	53.79977417	1.0
2	-36	0	0.0009999999311	-2.710792065	-4.380523682	55.22570038	1.0
3	-36	0	0.0009999999311	-2.789110661	-4.431881905	56.16603851	1.0
[RightHandPinky3]
1	-21.14200211	0	0	-0.9965206981	-0.3558512926	26.82288933	1.0
2	-21.14200211	0	0	-1.070316195	-0.4721074402	28.19615364	1.0
3	-21.14200211	0	0	-1.116212845	-0.5475504398	29.0771904	1.0
[RightHandPinky4]
1	-19.75699997	0	0	0	0	0	1.0
2	-19.75699997	0	0	0	0	0	1.0
3	-19.75699997	0	0	0	0	0	1.0
[RightHandRing1]
1	-91.03599548	-0.4390000105	-18.65100098	-5.710522175	-9.428777695	47.37442398	1.0
2	-91.03599548	-0.4390000105	-18.65100098	-5.954219818	-8.315716743	49.51352692	1.0
3	-91.03599548	-0.4390000105	-18.65100098	-5.485211372	-6.449846745	46.8823967	1.0
[RightHandRing2]
1	-31.54000092	0	0	-0.9058305621	-3.64669466	35.12786102	1.0
2	-31.54000092	0	0	-0.9279471636	-3.68052268	35.5363121	1.0
3	-31.54000092	0	0	-0.9692876339	-3.74306488	36.29420471	1.0
[RightHandRing3]
1	-29.37700081	0	0	-0.3604387641	-0.6754921675	25.82718086	1.0
2	-29.37700081	0	0	-0.3739922047	-0.7120044231	26.21858978	1.0
3	-29.37700081	0	0	-0.3997976184	-0.7805074453	26.95399857	1.0
[RightHandRing4]
1	-26.47500038	0	0	0	0	0	1.0
2	-26.47500038	0	0	0	0	0	1.0
3	-26.47500038	0	0	0	0	0	1.0
[RightHandMiddle1]
1	-95.32500458	0	0	-5.041776657	-1.571726441	43.12504578	1.0
2	-95.32500458	0	0	-5.405330181	0.2420999408	45.85619736	1.0
3	-95.32500458	0	0	-5.233418465	3.517501831	44.9914856	1.0
[RightHandMiddle2]
1	-36.98199844	0	0	-1.078145385	-3.40797925	28.05668449	1.0
2	-36.98199844	0	0	-1.042310357	-3.360514641	27.4687767	1.0
3	-36.98199844	0	0	-1.030038357	-3.344479561	27.26927376	1.0
[RightHandMiddle3]
1	-29.50900078	0	0	-0.3458969593	-1.954782009	18.83131599	1.0
2	-29.50900078	0	0	-0.3246208727	-1.89514339	18.19462776	1.0
3	-29.50900078	0	0	-0.3172756135	-1.874664664	17.97592545	1.0
[RightHandMiddle4]
1	-28.3390007	0	0.0009999999311	0	0	0	1.0
2	-28.3390007	0	0.0009999999311	0	0	0	1.0
3	-28.3390007	0	0.0009999999311	0	0	0	1.0
[RightHandIndex1]
1	-91.08300018	-5.167999744	22.60099792	-1.350711107	4.658275604	20.65032196	1.0
2	-91.08300018	-5.167999744	22.60099792	-2.005653381	6.3069067	24.19510651	1.0
3	-91.08300018	-5.167999744	22.60099792	-2.153472662	9.568080902	23.95780182	1.0
[RightHandIndex2]
1	-36.76399994	0	0	-0.3118863106	-2.080973387	13.10988426	1.0
2	-36.76399994	0	0	-0.3297045827	-2.12702632	13.59527588	1.0
3	-36.76399994	0	0	-0.3500840664	-2.178108454	14.13602543	1.0
[RightHandIndex3]
1	-28.83100128	0	0	-0.2091156542	-0.03219481558	12.56517124	1.0
2	-28.83100128	0	0	-0.2204522192	-0.08201532811	13.07332706	1.0
3	-28.83100128	0	0	-0.2370417118	-0.1503853798	13.77284622	1.0
[RightHandIndex4]
1	-23.92700005	0	0	0	0	0	1.0
2	-23.92700005	0	0	0	0	0	1.0
3	-23.92700005	0	0	0	0	0	1.0
[RightHandThumb1]
1	-24.64799881	-15.72700024	26.82600021	-1.712681055	8.087128639	8.078748703	1.0
2	-24.64799881	-15.72700024	26.82600021	-1.794038415	8.343492508	8.239413261	1.0
3	-24.64799881	-15.72700024	26.82600021	-1.864075184	8.46469593	8.292819023	1.0
[RightHandThumb2]
1	-32.29800034	-18.64699936	18.64699936	2.833681583	-25.55970955	-13.74291229	1.0
2	-32.29800034	-18.64699936	18.64699936	2.832016468	-26.57659912	-13.11101532	1.0
3	-32.29800034	-18.64699936	18.64699936	2.843428373	-26.6342144	-13.32267761	1.0
[RightHandThumb3]
1	-26.52600098	-15.31399918	15.31399918	2.110920668	-10.58477592	0.5955506563	1.0
2	-26.52600098	-15.31399918	15.31399918	2.041321039	-11.93990517	-0.3015956879	1.0
3	-26.52600098	-15.31399918	15.31399918	1.95996201	-12.99594021	-1.993322492	1.0
[RightHandThumb4]
1	-19.54599953	-11.28499985	11.28499985	0	0	0	1.0
2	-19.54599953	-11.28499985	11.28499985	0	0	0	1.0
3	-19.54599953	-11.28499985	11.28499985	0	0	0	1.0
[LeftUpLeg]
1	82.07800293	-67.51699829	-15.99599934	-27.83319664	4.494674683	8.727422714	1.0
2	82.07800293	-67.51699829	-15.99599934	-43.60561371	4.339911938	7.882838726	1.0
3	82.07800293	-67.51699829	-15.99599934	-51.04592896	-0.35610044	2.740795851	1.0
[LeftLeg]
1	0	-443.7049866	2.845999956	103.8603745	-3.803794861	5.134364605	1.0
2	0	-443.7049866	2.845999956	104.5457077	-1.81484592	3.021512985	1.0
3	0	-443.7049866	2.845999956	90.18431091	-1.396110535	1.247404337	1.0
[LeftFoot]
1	0	-444.2789917	-29.8219986	8.399555206	10.12660694	1.268011212	1.0
2	0	-444.2789917	-29.8219986	1.112134576	7.227417469	0.1389772743	1.0
3	0	-444.2789917	-29.8219986	-5.053309917	9.525585175	-4.994064331	1.0
[LeftToeBase]
1	0	-87.28699493	107.1060028	-9.615354538	-2.943848131e-06	1.725980496e-06	1.0
2	0	-87.28699493	107.1060028	-5.813385963	-6.046827366e-06	-3.601630306e-05	1.0
3	0	-87.28699493	107.1060028	-3.641475916	7.996708518e-06	-2.379465332e-05	1.0
[RightUpLeg]
1	-82.07800293	-67.51699829	-15.99599934	-26.03313637	1.674169183	4.913578033	1.0
2	-82.07800293	-67.51699829	-15.99599934	-11.95786762	-0.7193071842	7.397776127	1.0
3	-82.07800293	-67.51699829	-15.99599934	2.857872009	-5.813093185	5.609705925	1.0
[RightLeg]
1	0	-443.7049866	2.861999989	43.95065308	-2.911229134	-4.681248665	1.0
2	0	-443.7049866	2.861999989	33.18814468	-2.690872908	-3.956361055	1.0
3	0	-443.7049866	2.861999989	18.36099243	-1.521589994	-2.449375629	1.0
[RightFoot]
1	0	-444.2770081	-29.83799934	-24.53679466	-1.644296169	-0.6361344457	1.0
2	0	-444.2770081	-29.83799934	-28.90973091	-2.996814728	-1.265645385	1.0
3	0	-444.2770081	-29.83799934	-13.80125427	-2.678662539	0.1189195514	1.0
[RightToeBase]
1	0	-87.28699493	107.1060028	-2.938143492	2.133435555e-05	4.492311746e-06	1.0
2	0	-87.28699493	107.1060028	-4.319711208	-2.862170732e-05	4.252726455e-07	1.0
3	0	-87.28699493	107.1060028	-10.02489948	-0.3219099045	-1.220010757	1.0
[EndOfFile]
